<?xml version="1.0" encoding="UTF-8"?>
<svg version="1.1" xmlns="http://www.w3.org/2000/svg" width="159" height="39">
<path d="M0 0 C6.93 0 13.86 0 21 0 C21.99 2.97 22.98 5.94 24 9 C26.1588622 10.67073542 26.1588622 10.67073542 28.6875 11.0625 C30.110625 11.371875 31.53375 11.68125 33 12 C33 15.96 33 19.92 33 24 C28.545 23.01 28.545 23.01 24 22 C24.6496875 22.97582031 25.299375 23.95164062 25.96875 24.95703125 C26.81285854 26.24195203 27.65658894 27.52712129 28.5 28.8125 C28.92925781 29.45509766 29.35851563 30.09769531 29.80078125 30.75976562 C33 35.66015625 33 35.66015625 33 39 C28.40562025 39.89473238 24.5527239 40.21202269 20 39 C15.88284856 35.22616803 13.43985255 29.94275039 11 25 C8.10733987 27.50754266 6.83440429 30.29969098 5.125 33.6875 C3.31640625 36.65625 3.31640625 36.65625 1 39 C-3.47004097 39.95972875 -7.49978877 39.66995626 -12 39 C-11.32599282 35.08885974 -9.45743967 32.12880818 -7.4375 28.75 C-6.79683594 27.67234375 -6.15617188 26.5946875 -5.49609375 25.484375 C-5.00238281 24.66453125 -4.50867187 23.8446875 -4 23 C-5.299375 23.185625 -6.59875 23.37125 -7.9375 23.5625 C-10.15234375 23.87890625 -10.15234375 23.87890625 -12 24 C-13 23 -13 23 -13.09765625 20.71484375 C-13.08605469 19.79832031 -13.07445312 18.88179687 -13.0625 17.9375 C-13.05347656 17.01839844 -13.04445313 16.09929688 -13.03515625 15.15234375 C-13.02355469 14.44207031 -13.01195312 13.73179688 -13 13 C-12.45730469 12.74605469 -11.91460937 12.49210938 -11.35546875 12.23046875 C-10.64003906 11.88628906 -9.92460937 11.54210938 -9.1875 11.1875 C-8.47980469 10.85105469 -7.77210937 10.51460937 -7.04296875 10.16796875 C-2.2197611 7.41053264 -1.8926204 5.67786119 0 0 Z M10 7 C9.24443496 8.21311837 8.52132119 9.44648943 7.8125 10.6875 C5.36363857 14.72597324 2.72431757 17.1418028 -1 20 C-1 20.33 -1 20.66 -1 21 C6.59 21 14.18 21 22 21 C20.35 19.68 18.7 18.36 17 17 C15.234375 14.421875 15.234375 14.421875 13.75 11.75 C12.8552373 10.15418612 11.94480651 8.56670447 11 7 C10.67 7 10.34 7 10 7 Z " fill="#FF8E66" transform="translate(13,0)"/>
<path d="M0 0 C2.8100346 1.79363911 4.50940468 3.01880935 6 6 C6.42308538 10.59698532 6.53894467 14.70653278 4.75 19 C2.01916981 22.12094878 0.17662968 22.87482663 -3.9375 23.3125 C-7.45778025 22.95328773 -9.21797817 22.16379476 -12 20 C-14.57467628 15.79260218 -14.56611568 11.80340574 -14 7 C-11.13708468 0.59252285 -6.81747456 -1.11631162 0 0 Z M-8.875 4.4375 C-10.56063721 8.27700698 -10.84578391 11.88435506 -10 16 C-7.6816144 18.60910963 -7.6816144 18.60910963 -5 20 C-2.08482708 18.92598892 -0.22189824 18.22189824 2 16 C3.13754078 12.14986198 3.18316375 10.44125813 1.625 6.6875 C0.24816472 4.16842366 0.24816472 4.16842366 -1 3 C-5.23724501 2.51941582 -5.23724501 2.51941582 -8.875 4.4375 Z " fill="#FFFFFF" transform="translate(78,7)"/>
<path d="M0 0 C0.99 0 1.98 0 3 0 C3.33 4.95 3.66 9.9 4 15 C4.60328125 13.9171875 5.2065625 12.834375 5.828125 11.71875 C6.63463282 10.31205031 7.44196755 8.90582448 8.25 7.5 C8.64574219 6.78457031 9.04148437 6.06914062 9.44921875 5.33203125 C10.03896484 4.31689453 10.03896484 4.31689453 10.640625 3.28125 C10.99672852 2.65283203 11.35283203 2.02441406 11.71972656 1.37695312 C12.1422168 0.92255859 12.56470703 0.46816406 13 0 C14.32 0 15.64 0 17 0 C17 7.26 17 14.52 17 22 C16.01 22 15.02 22 14 22 C13.67 17.38 13.34 12.76 13 8 C12.48050781 8.92683594 11.96101563 9.85367187 11.42578125 10.80859375 C10.72221397 12.01872946 10.01773909 13.22833782 9.3125 14.4375 C8.97283203 15.04916016 8.63316406 15.66082031 8.28320312 16.29101562 C7.23828125 18.05859375 7.23828125 18.05859375 5 21 C3.35 21.33 1.7 21.66 0 22 C0 14.74 0 7.48 0 0 Z " fill="#FFFFFF" transform="translate(104,7)"/>
<path d="M0 0 C4.29 0 8.58 0 13 0 C13 0.99 13 1.98 13 3 C10.03 3 7.06 3 4 3 C4 4.65 4 6.3 4 8 C5.36125 7.9071875 5.36125 7.9071875 6.75 7.8125 C10.37304782 8.02152199 11.59003107 8.32225674 14 11 C15 13.875 15 13.875 15 17 C13.625 19.8125 13.625 19.8125 11 22 C7.28858213 22.95417658 3.51026075 23.75513038 0 22 C0 14.74 0 7.48 0 0 Z M4 11 C4 13.97 4 16.94 4 20 C7.93075644 19.42547254 7.93075644 19.42547254 11 17 C10.67958603 14.39719432 10.67958603 14.39719432 10 12 C7.03 11.505 7.03 11.505 4 11 Z " fill="#FFFFFF" transform="translate(87,7)"/>
<path d="M0 0 C1.32 0 2.64 0 4 0 C5.17171756 3.28989086 6.33651088 6.58219102 7.5 9.875 C8.00080078 11.28072266 8.00080078 11.28072266 8.51171875 12.71484375 C8.82753906 13.61074219 9.14335937 14.50664062 9.46875 15.4296875 C9.76201172 16.25710449 10.05527344 17.08452148 10.35742188 17.93701172 C11 20 11 20 11 22 C9.68 22 8.36 22 7 22 C6.67 20.02 6.34 18.04 6 16 C3.36 16 0.72 16 -2 16 C-2.66 17.98 -3.32 19.96 -4 22 C-5.32 21.67 -6.64 21.34 -8 21 C-6.8588375 17.68587205 -5.71129255 14.37399007 -4.5625 11.0625 C-4.23701172 10.11697266 -3.91152344 9.17144531 -3.57617188 8.19726562 C-3.10727539 6.84858398 -3.10727539 6.84858398 -2.62890625 5.47265625 C-2.34088135 4.64000244 -2.05285645 3.80734863 -1.75610352 2.94946289 C-1 1 -1 1 0 0 Z M1 6 C0.34 8.31 -0.32 10.62 -1 13 C0.65 13 2.3 13 4 13 C3.65772428 10.02934491 3.65772428 10.02934491 3 7 C2.34 6.67 1.68 6.34 1 6 Z " fill="#FFFFFF" transform="translate(148,7)"/>
<path d="M0 0 C10 0 10 0 14 3 C14.42685201 6.41481611 14.66565297 8.82531829 12.9375 11.875 C10.07886867 13.53485045 7.25260697 13.69315029 4 14 C4 16.64 4 19.28 4 22 C2.68 22 1.36 22 0 22 C0 14.74 0 7.48 0 0 Z M4 3 C4 5.64 4 8.28 4 11 C6.44480079 10.81171228 6.44480079 10.81171228 9 10 C10.36020151 8.03241727 10.36020151 8.03241727 11 6 C10.34 5.01 9.68 4.02 9 3 C6.41619823 2.74969023 6.41619823 2.74969023 4 3 Z " fill="#FFFFFF" transform="translate(125,7)"/>
<path d="M0 0 C5.28 0 10.56 0 16 0 C16 0.99 16 1.98 16 3 C14.02 3 12.04 3 10 3 C10 9.27 10 15.54 10 22 C8.68 22 7.36 22 6 22 C6 15.73 6 9.46 6 3 C4.02 3 2.04 3 0 3 C0 2.01 0 1.02 0 0 Z " fill="#FFFFFF" transform="translate(47,7)"/>
</svg>
