<!-- icon666.com - MILLIONS OF FREE VECTOR ICONS --><svg fill="none" viewBox="0 0 24 24" xmlns="http://www.w3.org/2000/svg"><path clip-rule="evenodd" d="m7 21c0 .5523.44772 1 1 1s1-.4477 1-1v-13h2c.5523 0 1-.44771 1-1 0-.55228-.4477-1-1-1h-2v-3c0-.55228-.44772-1-1-1s-1 .44772-1 1v3h-2c-.55228 0-1 .44772-1 1 0 .55229.44772 1 1 1h2zm9-19c-.5523 0-1 .44772-1 1v13h-2c-.5523 0-1 .4477-1 1s.4477 1 1 1h2v3c0 .5523.4477 1 1 1s1-.4477 1-1v-3h2c.5523 0 1-.4477 1-1s-.4477-1-1-1h-2v-13c0-.55228-.4477-1-1-1z" fill="rgb(0,0,0)" fill-rule="evenodd"></path></svg>